M48
; DRILL file {KiCad (5.1.12)-1} date 08/02/22 20:25:10
; FORMAT={3:3/ absolute / metric / suppress leading zeros}
; #@! TF.CreationDate,2022-08-02T20:25:10+02:00
; #@! TF.GenerationSoftware,Kicad,Pcbnew,(5.1.12)-1
FMAT,2
METRIC,TZ
T1C0.400
T2C0.600
T3C0.900
T4C1.000
T5C2.250
T6C4.300
%
G90
G05
T1
X162437Y-92079
T3
X154105Y-50440
X154105Y-52980
X154105Y-55520
X154105Y-58060
X154105Y-60600
X154105Y-63140
X154105Y-65680
X154105Y-68220
X154105Y-70760
X154105Y-73300
X154105Y-75840
X154105Y-78380
X154105Y-80920
X154105Y-83460
X154105Y-86000
X154105Y-88540
X154105Y-91080
X154105Y-93620
X154105Y-96160
X180105Y-50440
X180105Y-52980
X180105Y-55520
X180105Y-58060
X180105Y-60600
X180105Y-63140
X180105Y-65680
X180105Y-68220
X180105Y-70760
X180105Y-73300
X180105Y-75840
X180105Y-78380
X180105Y-80920
X180105Y-83460
X180105Y-86000
X180105Y-88540
X180105Y-91080
X180105Y-93620
X180105Y-96160
T4
X159512Y-48514
X162052Y-48514
X164592Y-48514
X165100Y-63754
X169672Y-48514
X170100Y-63754
X172212Y-48514
X174752Y-48514
T5
X154605Y-47300
X154605Y-99300
X179605Y-47300
X179605Y-99300
T6
X146558Y-95187
X146685Y-51753
X187389Y-51753
X187389Y-95060
T2
G00X163320Y-95598
M15
G01X163320Y-94998
M16
G05
G00X163320Y-99398
M15
G01X163320Y-98798
M16
G05
G00X171960Y-95598
M15
G01X171960Y-94998
M16
G05
G00X171960Y-99398
M15
G01X171960Y-98798
M16
G05
T0
M30
