%TF.GenerationSoftware,KiCad,Pcbnew,(5.1.12)-1*%
%TF.CreationDate,2022-08-02T20:23:38+02:00*%
%TF.ProjectId,esp32-led,65737033-322d-46c6-9564-2e6b69636164,rev?*%
%TF.SameCoordinates,Original*%
%TF.FileFunction,Profile,NP*%
%FSLAX46Y46*%
G04 Gerber Fmt 4.6, Leading zero omitted, Abs format (unit mm)*
G04 Created by KiCad (PCBNEW (5.1.12)-1) date 2022-08-02 20:23:38*
%MOMM*%
%LPD*%
G01*
G04 APERTURE LIST*
%TA.AperFunction,Profile*%
%ADD10C,0.050000*%
%TD*%
G04 APERTURE END LIST*
D10*
X192405000Y-58483500D02*
X192405000Y-45593000D01*
X192405000Y-95250000D02*
X192405000Y-88773000D01*
X181356000Y-58483500D02*
X181356000Y-88773000D01*
X187388500Y-58483500D02*
X181356000Y-58483500D01*
X187388500Y-58483500D02*
X192405000Y-58483500D01*
X187388500Y-88773000D02*
X181356000Y-88773000D01*
X187388500Y-88773000D02*
X192405000Y-88773000D01*
X141605000Y-95250000D02*
X141605000Y-88455500D01*
X141605000Y-45720000D02*
X141605000Y-58483500D01*
X152844500Y-88455500D02*
X152590500Y-88455500D01*
X152844500Y-58483500D02*
X152844500Y-88455500D01*
X146558000Y-88455500D02*
X152590500Y-88455500D01*
X146558000Y-88455500D02*
X141605000Y-88455500D01*
X146685000Y-58483500D02*
X152844500Y-58483500D01*
X146685000Y-58483500D02*
X141605000Y-58483500D01*
X192405000Y-95250000D02*
X192405000Y-101282500D01*
X143065500Y-101282500D02*
X192278000Y-101282500D01*
X192405000Y-101282500D02*
X192278000Y-101282500D01*
X141605000Y-101282500D02*
X143065500Y-101282500D01*
X141605000Y-95250000D02*
X141605000Y-101282500D01*
X141605000Y-45085000D02*
X141605000Y-45720000D01*
X192405000Y-45085000D02*
X192405000Y-45593000D01*
X192151000Y-45085000D02*
X192405000Y-45085000D01*
X141605000Y-45085000D02*
X192151000Y-45085000D01*
M02*
