%TF.GenerationSoftware,KiCad,Pcbnew,(5.1.12)-1*%
%TF.CreationDate,2022-08-02T20:23:38+02:00*%
%TF.ProjectId,esp32-led,65737033-322d-46c6-9564-2e6b69636164,rev?*%
%TF.SameCoordinates,Original*%
%TF.FileFunction,Legend,Bot*%
%TF.FilePolarity,Positive*%
%FSLAX46Y46*%
G04 Gerber Fmt 4.6, Leading zero omitted, Abs format (unit mm)*
G04 Created by KiCad (PCBNEW (5.1.12)-1) date 2022-08-02 20:23:38*
%MOMM*%
%LPD*%
G01*
G04 APERTURE LIST*
%ADD10C,0.120000*%
%ADD11C,0.127000*%
%ADD12C,0.200000*%
%ADD13C,0.150000*%
G04 APERTURE END LIST*
D10*
%TO.C,J3*%
X168342000Y-47184000D02*
X168342000Y-48514000D01*
X169672000Y-47184000D02*
X168342000Y-47184000D01*
X170942000Y-47184000D02*
X170942000Y-49844000D01*
X170942000Y-49844000D02*
X176082000Y-49844000D01*
X170942000Y-47184000D02*
X176082000Y-47184000D01*
X176082000Y-47184000D02*
X176082000Y-49844000D01*
%TO.C,J1*%
X165922000Y-49844000D02*
X165922000Y-48514000D01*
X164592000Y-49844000D02*
X165922000Y-49844000D01*
X163322000Y-49844000D02*
X163322000Y-47184000D01*
X163322000Y-47184000D02*
X158182000Y-47184000D01*
X163322000Y-49844000D02*
X158182000Y-49844000D01*
X158182000Y-49844000D02*
X158182000Y-47184000D01*
D11*
%TO.C,U1*%
X171711000Y-76300000D02*
X171711000Y-78640000D01*
X163061000Y-76300000D02*
X163061000Y-78640000D01*
D12*
X163386000Y-73420000D02*
G75*
G03*
X163386000Y-73420000I-100000J0D01*
G01*
D10*
%TO.C,R3*%
X174471000Y-88619064D02*
X174471000Y-88164936D01*
X173001000Y-88619064D02*
X173001000Y-88164936D01*
%TO.C,R2*%
X168629000Y-88619064D02*
X168629000Y-88164936D01*
X167159000Y-88619064D02*
X167159000Y-88164936D01*
%TO.C,R1*%
X171677000Y-88619064D02*
X171677000Y-88164936D01*
X170207000Y-88619064D02*
X170207000Y-88164936D01*
%TO.C,C2*%
X164057000Y-88653252D02*
X164057000Y-88130748D01*
X162587000Y-88653252D02*
X162587000Y-88130748D01*
%TO.C,C1*%
X172720000Y-63754000D02*
G75*
G03*
X172720000Y-63754000I-5120000J0D01*
G01*
X167600000Y-68834000D02*
X167600000Y-58674000D01*
X167640000Y-68834000D02*
X167640000Y-58674000D01*
X167680000Y-68834000D02*
X167680000Y-58674000D01*
X167720000Y-68833000D02*
X167720000Y-58675000D01*
X167760000Y-68832000D02*
X167760000Y-58676000D01*
X167800000Y-68831000D02*
X167800000Y-58677000D01*
X167840000Y-68829000D02*
X167840000Y-58679000D01*
X167880000Y-68827000D02*
X167880000Y-58681000D01*
X167920000Y-68824000D02*
X167920000Y-58684000D01*
X167960000Y-68822000D02*
X167960000Y-58686000D01*
X168000000Y-68819000D02*
X168000000Y-58689000D01*
X168040000Y-68816000D02*
X168040000Y-58692000D01*
X168080000Y-68812000D02*
X168080000Y-58696000D01*
X168120000Y-68808000D02*
X168120000Y-58700000D01*
X168160000Y-68804000D02*
X168160000Y-58704000D01*
X168200000Y-68799000D02*
X168200000Y-58709000D01*
X168240000Y-68794000D02*
X168240000Y-58714000D01*
X168280000Y-68789000D02*
X168280000Y-58719000D01*
X168321000Y-68784000D02*
X168321000Y-58724000D01*
X168361000Y-68778000D02*
X168361000Y-58730000D01*
X168401000Y-68772000D02*
X168401000Y-58736000D01*
X168441000Y-68765000D02*
X168441000Y-58743000D01*
X168481000Y-68758000D02*
X168481000Y-58750000D01*
X168521000Y-68751000D02*
X168521000Y-58757000D01*
X168561000Y-68744000D02*
X168561000Y-58764000D01*
X168601000Y-68736000D02*
X168601000Y-58772000D01*
X168641000Y-68728000D02*
X168641000Y-58780000D01*
X168681000Y-68719000D02*
X168681000Y-58789000D01*
X168721000Y-68710000D02*
X168721000Y-58798000D01*
X168761000Y-68701000D02*
X168761000Y-58807000D01*
X168801000Y-68692000D02*
X168801000Y-58816000D01*
X168841000Y-68682000D02*
X168841000Y-58826000D01*
X168881000Y-68672000D02*
X168881000Y-64995000D01*
X168881000Y-62513000D02*
X168881000Y-58836000D01*
X168921000Y-68661000D02*
X168921000Y-64995000D01*
X168921000Y-62513000D02*
X168921000Y-58847000D01*
X168961000Y-68651000D02*
X168961000Y-64995000D01*
X168961000Y-62513000D02*
X168961000Y-58857000D01*
X169001000Y-68639000D02*
X169001000Y-64995000D01*
X169001000Y-62513000D02*
X169001000Y-58869000D01*
X169041000Y-68628000D02*
X169041000Y-64995000D01*
X169041000Y-62513000D02*
X169041000Y-58880000D01*
X169081000Y-68616000D02*
X169081000Y-64995000D01*
X169081000Y-62513000D02*
X169081000Y-58892000D01*
X169121000Y-68604000D02*
X169121000Y-64995000D01*
X169121000Y-62513000D02*
X169121000Y-58904000D01*
X169161000Y-68591000D02*
X169161000Y-64995000D01*
X169161000Y-62513000D02*
X169161000Y-58917000D01*
X169201000Y-68578000D02*
X169201000Y-64995000D01*
X169201000Y-62513000D02*
X169201000Y-58930000D01*
X169241000Y-68565000D02*
X169241000Y-64995000D01*
X169241000Y-62513000D02*
X169241000Y-58943000D01*
X169281000Y-68551000D02*
X169281000Y-64995000D01*
X169281000Y-62513000D02*
X169281000Y-58957000D01*
X169321000Y-68537000D02*
X169321000Y-64995000D01*
X169321000Y-62513000D02*
X169321000Y-58971000D01*
X169361000Y-68522000D02*
X169361000Y-64995000D01*
X169361000Y-62513000D02*
X169361000Y-58986000D01*
X169401000Y-68508000D02*
X169401000Y-64995000D01*
X169401000Y-62513000D02*
X169401000Y-59000000D01*
X169441000Y-68492000D02*
X169441000Y-64995000D01*
X169441000Y-62513000D02*
X169441000Y-59016000D01*
X169481000Y-68477000D02*
X169481000Y-64995000D01*
X169481000Y-62513000D02*
X169481000Y-59031000D01*
X169521000Y-68461000D02*
X169521000Y-64995000D01*
X169521000Y-62513000D02*
X169521000Y-59047000D01*
X169561000Y-68444000D02*
X169561000Y-64995000D01*
X169561000Y-62513000D02*
X169561000Y-59064000D01*
X169601000Y-68428000D02*
X169601000Y-64995000D01*
X169601000Y-62513000D02*
X169601000Y-59080000D01*
X169641000Y-68411000D02*
X169641000Y-64995000D01*
X169641000Y-62513000D02*
X169641000Y-59097000D01*
X169681000Y-68393000D02*
X169681000Y-64995000D01*
X169681000Y-62513000D02*
X169681000Y-59115000D01*
X169721000Y-68375000D02*
X169721000Y-64995000D01*
X169721000Y-62513000D02*
X169721000Y-59133000D01*
X169761000Y-68357000D02*
X169761000Y-64995000D01*
X169761000Y-62513000D02*
X169761000Y-59151000D01*
X169801000Y-68338000D02*
X169801000Y-64995000D01*
X169801000Y-62513000D02*
X169801000Y-59170000D01*
X169841000Y-68318000D02*
X169841000Y-64995000D01*
X169841000Y-62513000D02*
X169841000Y-59190000D01*
X169881000Y-68299000D02*
X169881000Y-64995000D01*
X169881000Y-62513000D02*
X169881000Y-59209000D01*
X169921000Y-68279000D02*
X169921000Y-64995000D01*
X169921000Y-62513000D02*
X169921000Y-59229000D01*
X169961000Y-68258000D02*
X169961000Y-64995000D01*
X169961000Y-62513000D02*
X169961000Y-59250000D01*
X170001000Y-68237000D02*
X170001000Y-64995000D01*
X170001000Y-62513000D02*
X170001000Y-59271000D01*
X170041000Y-68216000D02*
X170041000Y-64995000D01*
X170041000Y-62513000D02*
X170041000Y-59292000D01*
X170081000Y-68194000D02*
X170081000Y-64995000D01*
X170081000Y-62513000D02*
X170081000Y-59314000D01*
X170121000Y-68171000D02*
X170121000Y-64995000D01*
X170121000Y-62513000D02*
X170121000Y-59337000D01*
X170161000Y-68149000D02*
X170161000Y-64995000D01*
X170161000Y-62513000D02*
X170161000Y-59359000D01*
X170201000Y-68125000D02*
X170201000Y-64995000D01*
X170201000Y-62513000D02*
X170201000Y-59383000D01*
X170241000Y-68101000D02*
X170241000Y-64995000D01*
X170241000Y-62513000D02*
X170241000Y-59407000D01*
X170281000Y-68077000D02*
X170281000Y-64995000D01*
X170281000Y-62513000D02*
X170281000Y-59431000D01*
X170321000Y-68052000D02*
X170321000Y-64995000D01*
X170321000Y-62513000D02*
X170321000Y-59456000D01*
X170361000Y-68027000D02*
X170361000Y-64995000D01*
X170361000Y-62513000D02*
X170361000Y-59481000D01*
X170401000Y-68001000D02*
X170401000Y-64995000D01*
X170401000Y-62513000D02*
X170401000Y-59507000D01*
X170441000Y-67975000D02*
X170441000Y-64995000D01*
X170441000Y-62513000D02*
X170441000Y-59533000D01*
X170481000Y-67948000D02*
X170481000Y-64995000D01*
X170481000Y-62513000D02*
X170481000Y-59560000D01*
X170521000Y-67920000D02*
X170521000Y-64995000D01*
X170521000Y-62513000D02*
X170521000Y-59588000D01*
X170561000Y-67892000D02*
X170561000Y-64995000D01*
X170561000Y-62513000D02*
X170561000Y-59616000D01*
X170601000Y-67864000D02*
X170601000Y-64995000D01*
X170601000Y-62513000D02*
X170601000Y-59644000D01*
X170641000Y-67834000D02*
X170641000Y-64995000D01*
X170641000Y-62513000D02*
X170641000Y-59674000D01*
X170681000Y-67804000D02*
X170681000Y-64995000D01*
X170681000Y-62513000D02*
X170681000Y-59704000D01*
X170721000Y-67774000D02*
X170721000Y-64995000D01*
X170721000Y-62513000D02*
X170721000Y-59734000D01*
X170761000Y-67743000D02*
X170761000Y-64995000D01*
X170761000Y-62513000D02*
X170761000Y-59765000D01*
X170801000Y-67711000D02*
X170801000Y-64995000D01*
X170801000Y-62513000D02*
X170801000Y-59797000D01*
X170841000Y-67679000D02*
X170841000Y-64995000D01*
X170841000Y-62513000D02*
X170841000Y-59829000D01*
X170881000Y-67646000D02*
X170881000Y-64995000D01*
X170881000Y-62513000D02*
X170881000Y-59862000D01*
X170921000Y-67612000D02*
X170921000Y-64995000D01*
X170921000Y-62513000D02*
X170921000Y-59896000D01*
X170961000Y-67578000D02*
X170961000Y-64995000D01*
X170961000Y-62513000D02*
X170961000Y-59930000D01*
X171001000Y-67543000D02*
X171001000Y-64995000D01*
X171001000Y-62513000D02*
X171001000Y-59965000D01*
X171041000Y-67507000D02*
X171041000Y-64995000D01*
X171041000Y-62513000D02*
X171041000Y-60001000D01*
X171081000Y-67470000D02*
X171081000Y-64995000D01*
X171081000Y-62513000D02*
X171081000Y-60038000D01*
X171121000Y-67433000D02*
X171121000Y-64995000D01*
X171121000Y-62513000D02*
X171121000Y-60075000D01*
X171161000Y-67394000D02*
X171161000Y-64995000D01*
X171161000Y-62513000D02*
X171161000Y-60114000D01*
X171201000Y-67355000D02*
X171201000Y-64995000D01*
X171201000Y-62513000D02*
X171201000Y-60153000D01*
X171241000Y-67315000D02*
X171241000Y-64995000D01*
X171241000Y-62513000D02*
X171241000Y-60193000D01*
X171281000Y-67274000D02*
X171281000Y-64995000D01*
X171281000Y-62513000D02*
X171281000Y-60234000D01*
X171321000Y-67232000D02*
X171321000Y-64995000D01*
X171321000Y-62513000D02*
X171321000Y-60276000D01*
X171361000Y-67190000D02*
X171361000Y-60318000D01*
X171401000Y-67146000D02*
X171401000Y-60362000D01*
X171441000Y-67101000D02*
X171441000Y-60407000D01*
X171481000Y-67055000D02*
X171481000Y-60453000D01*
X171521000Y-67008000D02*
X171521000Y-60500000D01*
X171561000Y-66960000D02*
X171561000Y-60548000D01*
X171601000Y-66910000D02*
X171601000Y-60598000D01*
X171641000Y-66860000D02*
X171641000Y-60648000D01*
X171681000Y-66808000D02*
X171681000Y-60700000D01*
X171721000Y-66754000D02*
X171721000Y-60754000D01*
X171761000Y-66699000D02*
X171761000Y-60809000D01*
X171801000Y-66643000D02*
X171801000Y-60865000D01*
X171841000Y-66584000D02*
X171841000Y-60924000D01*
X171881000Y-66524000D02*
X171881000Y-60984000D01*
X171921000Y-66463000D02*
X171921000Y-61045000D01*
X171961000Y-66399000D02*
X171961000Y-61109000D01*
X172001000Y-66333000D02*
X172001000Y-61175000D01*
X172041000Y-66264000D02*
X172041000Y-61244000D01*
X172081000Y-66193000D02*
X172081000Y-61315000D01*
X172121000Y-66119000D02*
X172121000Y-61389000D01*
X172161000Y-66043000D02*
X172161000Y-61465000D01*
X172201000Y-65963000D02*
X172201000Y-61545000D01*
X172241000Y-65879000D02*
X172241000Y-61629000D01*
X172281000Y-65791000D02*
X172281000Y-61717000D01*
X172321000Y-65698000D02*
X172321000Y-61810000D01*
X172361000Y-65600000D02*
X172361000Y-61908000D01*
X172401000Y-65496000D02*
X172401000Y-62012000D01*
X172441000Y-65384000D02*
X172441000Y-62124000D01*
X172481000Y-65264000D02*
X172481000Y-62244000D01*
X172521000Y-65132000D02*
X172521000Y-62376000D01*
X172561000Y-64984000D02*
X172561000Y-62524000D01*
X172601000Y-64816000D02*
X172601000Y-62692000D01*
X172641000Y-64616000D02*
X172641000Y-62892000D01*
X172681000Y-64353000D02*
X172681000Y-63155000D01*
X162120354Y-66629000D02*
X163120354Y-66629000D01*
X162620354Y-67129000D02*
X162620354Y-66129000D01*
%TO.C,J2*%
D13*
X168098333Y-92615380D02*
X168098333Y-93329666D01*
X168145952Y-93472523D01*
X168241190Y-93567761D01*
X168384047Y-93615380D01*
X168479285Y-93615380D01*
X167669761Y-92710619D02*
X167622142Y-92663000D01*
X167526904Y-92615380D01*
X167288809Y-92615380D01*
X167193571Y-92663000D01*
X167145952Y-92710619D01*
X167098333Y-92805857D01*
X167098333Y-92901095D01*
X167145952Y-93043952D01*
X167717380Y-93615380D01*
X167098333Y-93615380D01*
%TO.C,U1*%
X161403380Y-76283095D02*
X162212904Y-76283095D01*
X162308142Y-76330714D01*
X162355761Y-76378333D01*
X162403380Y-76473571D01*
X162403380Y-76664047D01*
X162355761Y-76759285D01*
X162308142Y-76806904D01*
X162212904Y-76854523D01*
X161403380Y-76854523D01*
X162403380Y-77854523D02*
X162403380Y-77283095D01*
X162403380Y-77568809D02*
X161403380Y-77568809D01*
X161546238Y-77473571D01*
X161641476Y-77378333D01*
X161689095Y-77283095D01*
%TO.C,R3*%
X175838380Y-88225333D02*
X175362190Y-87892000D01*
X175838380Y-87653904D02*
X174838380Y-87653904D01*
X174838380Y-88034857D01*
X174886000Y-88130095D01*
X174933619Y-88177714D01*
X175028857Y-88225333D01*
X175171714Y-88225333D01*
X175266952Y-88177714D01*
X175314571Y-88130095D01*
X175362190Y-88034857D01*
X175362190Y-87653904D01*
X174838380Y-88558666D02*
X174838380Y-89177714D01*
X175219333Y-88844380D01*
X175219333Y-88987238D01*
X175266952Y-89082476D01*
X175314571Y-89130095D01*
X175409809Y-89177714D01*
X175647904Y-89177714D01*
X175743142Y-89130095D01*
X175790761Y-89082476D01*
X175838380Y-88987238D01*
X175838380Y-88701523D01*
X175790761Y-88606285D01*
X175743142Y-88558666D01*
%TO.C,R2*%
X169996380Y-88225333D02*
X169520190Y-87892000D01*
X169996380Y-87653904D02*
X168996380Y-87653904D01*
X168996380Y-88034857D01*
X169044000Y-88130095D01*
X169091619Y-88177714D01*
X169186857Y-88225333D01*
X169329714Y-88225333D01*
X169424952Y-88177714D01*
X169472571Y-88130095D01*
X169520190Y-88034857D01*
X169520190Y-87653904D01*
X169091619Y-88606285D02*
X169044000Y-88653904D01*
X168996380Y-88749142D01*
X168996380Y-88987238D01*
X169044000Y-89082476D01*
X169091619Y-89130095D01*
X169186857Y-89177714D01*
X169282095Y-89177714D01*
X169424952Y-89130095D01*
X169996380Y-88558666D01*
X169996380Y-89177714D01*
%TO.C,R1*%
X173044380Y-88225333D02*
X172568190Y-87892000D01*
X173044380Y-87653904D02*
X172044380Y-87653904D01*
X172044380Y-88034857D01*
X172092000Y-88130095D01*
X172139619Y-88177714D01*
X172234857Y-88225333D01*
X172377714Y-88225333D01*
X172472952Y-88177714D01*
X172520571Y-88130095D01*
X172568190Y-88034857D01*
X172568190Y-87653904D01*
X173044380Y-89177714D02*
X173044380Y-88606285D01*
X173044380Y-88892000D02*
X172044380Y-88892000D01*
X172187238Y-88796761D01*
X172282476Y-88701523D01*
X172330095Y-88606285D01*
%TO.C,C2*%
X165359142Y-88225333D02*
X165406761Y-88177714D01*
X165454380Y-88034857D01*
X165454380Y-87939619D01*
X165406761Y-87796761D01*
X165311523Y-87701523D01*
X165216285Y-87653904D01*
X165025809Y-87606285D01*
X164882952Y-87606285D01*
X164692476Y-87653904D01*
X164597238Y-87701523D01*
X164502000Y-87796761D01*
X164454380Y-87939619D01*
X164454380Y-88034857D01*
X164502000Y-88177714D01*
X164549619Y-88225333D01*
X164549619Y-88606285D02*
X164502000Y-88653904D01*
X164454380Y-88749142D01*
X164454380Y-88987238D01*
X164502000Y-89082476D01*
X164549619Y-89130095D01*
X164644857Y-89177714D01*
X164740095Y-89177714D01*
X164882952Y-89130095D01*
X165454380Y-88558666D01*
X165454380Y-89177714D01*
%TO.C,C1*%
X167766666Y-70361142D02*
X167814285Y-70408761D01*
X167957142Y-70456380D01*
X168052380Y-70456380D01*
X168195238Y-70408761D01*
X168290476Y-70313523D01*
X168338095Y-70218285D01*
X168385714Y-70027809D01*
X168385714Y-69884952D01*
X168338095Y-69694476D01*
X168290476Y-69599238D01*
X168195238Y-69504000D01*
X168052380Y-69456380D01*
X167957142Y-69456380D01*
X167814285Y-69504000D01*
X167766666Y-69551619D01*
X166814285Y-70456380D02*
X167385714Y-70456380D01*
X167100000Y-70456380D02*
X167100000Y-69456380D01*
X167195238Y-69599238D01*
X167290476Y-69694476D01*
X167385714Y-69742095D01*
%TD*%
M02*
