%TF.GenerationSoftware,KiCad,Pcbnew,(5.1.12)-1*%
%TF.CreationDate,2022-08-02T20:23:38+02:00*%
%TF.ProjectId,esp32-led,65737033-322d-46c6-9564-2e6b69636164,rev?*%
%TF.SameCoordinates,Original*%
%TF.FileFunction,Paste,Bot*%
%TF.FilePolarity,Positive*%
%FSLAX46Y46*%
G04 Gerber Fmt 4.6, Leading zero omitted, Abs format (unit mm)*
G04 Created by KiCad (PCBNEW (5.1.12)-1) date 2022-08-02 20:23:38*
%MOMM*%
%LPD*%
G01*
G04 APERTURE LIST*
%ADD10R,0.700000X1.200000*%
%ADD11R,0.760000X1.200000*%
%ADD12R,0.800000X1.200000*%
G04 APERTURE END LIST*
D10*
%TO.C,J2*%
X167140000Y-95218000D03*
X168140000Y-95218000D03*
D11*
X166120000Y-95218000D03*
X169160000Y-95218000D03*
D12*
X164890000Y-95218000D03*
X170390000Y-95218000D03*
%TD*%
%TO.C,U1*%
G36*
G01*
X163366000Y-78960000D02*
X163786000Y-78960000D01*
G75*
G02*
X163876000Y-79050000I0J-90000D01*
G01*
X163876000Y-80840000D01*
G75*
G02*
X163786000Y-80930000I-90000J0D01*
G01*
X163366000Y-80930000D01*
G75*
G02*
X163276000Y-80840000I0J90000D01*
G01*
X163276000Y-79050000D01*
G75*
G02*
X163366000Y-78960000I90000J0D01*
G01*
G37*
G36*
G01*
X164636000Y-78960000D02*
X165056000Y-78960000D01*
G75*
G02*
X165146000Y-79050000I0J-90000D01*
G01*
X165146000Y-80840000D01*
G75*
G02*
X165056000Y-80930000I-90000J0D01*
G01*
X164636000Y-80930000D01*
G75*
G02*
X164546000Y-80840000I0J90000D01*
G01*
X164546000Y-79050000D01*
G75*
G02*
X164636000Y-78960000I90000J0D01*
G01*
G37*
G36*
G01*
X165906000Y-78960000D02*
X166326000Y-78960000D01*
G75*
G02*
X166416000Y-79050000I0J-90000D01*
G01*
X166416000Y-80840000D01*
G75*
G02*
X166326000Y-80930000I-90000J0D01*
G01*
X165906000Y-80930000D01*
G75*
G02*
X165816000Y-80840000I0J90000D01*
G01*
X165816000Y-79050000D01*
G75*
G02*
X165906000Y-78960000I90000J0D01*
G01*
G37*
G36*
G01*
X167176000Y-78960000D02*
X167596000Y-78960000D01*
G75*
G02*
X167686000Y-79050000I0J-90000D01*
G01*
X167686000Y-80840000D01*
G75*
G02*
X167596000Y-80930000I-90000J0D01*
G01*
X167176000Y-80930000D01*
G75*
G02*
X167086000Y-80840000I0J90000D01*
G01*
X167086000Y-79050000D01*
G75*
G02*
X167176000Y-78960000I90000J0D01*
G01*
G37*
G36*
G01*
X168446000Y-78960000D02*
X168866000Y-78960000D01*
G75*
G02*
X168956000Y-79050000I0J-90000D01*
G01*
X168956000Y-80840000D01*
G75*
G02*
X168866000Y-80930000I-90000J0D01*
G01*
X168446000Y-80930000D01*
G75*
G02*
X168356000Y-80840000I0J90000D01*
G01*
X168356000Y-79050000D01*
G75*
G02*
X168446000Y-78960000I90000J0D01*
G01*
G37*
G36*
G01*
X169716000Y-78960000D02*
X170136000Y-78960000D01*
G75*
G02*
X170226000Y-79050000I0J-90000D01*
G01*
X170226000Y-80840000D01*
G75*
G02*
X170136000Y-80930000I-90000J0D01*
G01*
X169716000Y-80930000D01*
G75*
G02*
X169626000Y-80840000I0J90000D01*
G01*
X169626000Y-79050000D01*
G75*
G02*
X169716000Y-78960000I90000J0D01*
G01*
G37*
G36*
G01*
X170986000Y-78960000D02*
X171406000Y-78960000D01*
G75*
G02*
X171496000Y-79050000I0J-90000D01*
G01*
X171496000Y-80840000D01*
G75*
G02*
X171406000Y-80930000I-90000J0D01*
G01*
X170986000Y-80930000D01*
G75*
G02*
X170896000Y-80840000I0J90000D01*
G01*
X170896000Y-79050000D01*
G75*
G02*
X170986000Y-78960000I90000J0D01*
G01*
G37*
G36*
G01*
X170986000Y-74010000D02*
X171406000Y-74010000D01*
G75*
G02*
X171496000Y-74100000I0J-90000D01*
G01*
X171496000Y-75890000D01*
G75*
G02*
X171406000Y-75980000I-90000J0D01*
G01*
X170986000Y-75980000D01*
G75*
G02*
X170896000Y-75890000I0J90000D01*
G01*
X170896000Y-74100000D01*
G75*
G02*
X170986000Y-74010000I90000J0D01*
G01*
G37*
G36*
G01*
X169716000Y-74010000D02*
X170136000Y-74010000D01*
G75*
G02*
X170226000Y-74100000I0J-90000D01*
G01*
X170226000Y-75890000D01*
G75*
G02*
X170136000Y-75980000I-90000J0D01*
G01*
X169716000Y-75980000D01*
G75*
G02*
X169626000Y-75890000I0J90000D01*
G01*
X169626000Y-74100000D01*
G75*
G02*
X169716000Y-74010000I90000J0D01*
G01*
G37*
G36*
G01*
X168446000Y-74010000D02*
X168866000Y-74010000D01*
G75*
G02*
X168956000Y-74100000I0J-90000D01*
G01*
X168956000Y-75890000D01*
G75*
G02*
X168866000Y-75980000I-90000J0D01*
G01*
X168446000Y-75980000D01*
G75*
G02*
X168356000Y-75890000I0J90000D01*
G01*
X168356000Y-74100000D01*
G75*
G02*
X168446000Y-74010000I90000J0D01*
G01*
G37*
G36*
G01*
X167176000Y-74010000D02*
X167596000Y-74010000D01*
G75*
G02*
X167686000Y-74100000I0J-90000D01*
G01*
X167686000Y-75890000D01*
G75*
G02*
X167596000Y-75980000I-90000J0D01*
G01*
X167176000Y-75980000D01*
G75*
G02*
X167086000Y-75890000I0J90000D01*
G01*
X167086000Y-74100000D01*
G75*
G02*
X167176000Y-74010000I90000J0D01*
G01*
G37*
G36*
G01*
X165906000Y-74010000D02*
X166326000Y-74010000D01*
G75*
G02*
X166416000Y-74100000I0J-90000D01*
G01*
X166416000Y-75890000D01*
G75*
G02*
X166326000Y-75980000I-90000J0D01*
G01*
X165906000Y-75980000D01*
G75*
G02*
X165816000Y-75890000I0J90000D01*
G01*
X165816000Y-74100000D01*
G75*
G02*
X165906000Y-74010000I90000J0D01*
G01*
G37*
G36*
G01*
X164636000Y-74010000D02*
X165056000Y-74010000D01*
G75*
G02*
X165146000Y-74100000I0J-90000D01*
G01*
X165146000Y-75890000D01*
G75*
G02*
X165056000Y-75980000I-90000J0D01*
G01*
X164636000Y-75980000D01*
G75*
G02*
X164546000Y-75890000I0J90000D01*
G01*
X164546000Y-74100000D01*
G75*
G02*
X164636000Y-74010000I90000J0D01*
G01*
G37*
G36*
G01*
X163366000Y-74010000D02*
X163786000Y-74010000D01*
G75*
G02*
X163876000Y-74100000I0J-90000D01*
G01*
X163876000Y-75890000D01*
G75*
G02*
X163786000Y-75980000I-90000J0D01*
G01*
X163366000Y-75980000D01*
G75*
G02*
X163276000Y-75890000I0J90000D01*
G01*
X163276000Y-74100000D01*
G75*
G02*
X163366000Y-74010000I90000J0D01*
G01*
G37*
%TD*%
%TO.C,R3*%
G36*
G01*
X174186001Y-87992000D02*
X173285999Y-87992000D01*
G75*
G02*
X173036000Y-87742001I0J249999D01*
G01*
X173036000Y-87041999D01*
G75*
G02*
X173285999Y-86792000I249999J0D01*
G01*
X174186001Y-86792000D01*
G75*
G02*
X174436000Y-87041999I0J-249999D01*
G01*
X174436000Y-87742001D01*
G75*
G02*
X174186001Y-87992000I-249999J0D01*
G01*
G37*
G36*
G01*
X174186001Y-89992000D02*
X173285999Y-89992000D01*
G75*
G02*
X173036000Y-89742001I0J249999D01*
G01*
X173036000Y-89041999D01*
G75*
G02*
X173285999Y-88792000I249999J0D01*
G01*
X174186001Y-88792000D01*
G75*
G02*
X174436000Y-89041999I0J-249999D01*
G01*
X174436000Y-89742001D01*
G75*
G02*
X174186001Y-89992000I-249999J0D01*
G01*
G37*
%TD*%
%TO.C,R2*%
G36*
G01*
X168344001Y-87992000D02*
X167443999Y-87992000D01*
G75*
G02*
X167194000Y-87742001I0J249999D01*
G01*
X167194000Y-87041999D01*
G75*
G02*
X167443999Y-86792000I249999J0D01*
G01*
X168344001Y-86792000D01*
G75*
G02*
X168594000Y-87041999I0J-249999D01*
G01*
X168594000Y-87742001D01*
G75*
G02*
X168344001Y-87992000I-249999J0D01*
G01*
G37*
G36*
G01*
X168344001Y-89992000D02*
X167443999Y-89992000D01*
G75*
G02*
X167194000Y-89742001I0J249999D01*
G01*
X167194000Y-89041999D01*
G75*
G02*
X167443999Y-88792000I249999J0D01*
G01*
X168344001Y-88792000D01*
G75*
G02*
X168594000Y-89041999I0J-249999D01*
G01*
X168594000Y-89742001D01*
G75*
G02*
X168344001Y-89992000I-249999J0D01*
G01*
G37*
%TD*%
%TO.C,R1*%
G36*
G01*
X171392001Y-87992000D02*
X170491999Y-87992000D01*
G75*
G02*
X170242000Y-87742001I0J249999D01*
G01*
X170242000Y-87041999D01*
G75*
G02*
X170491999Y-86792000I249999J0D01*
G01*
X171392001Y-86792000D01*
G75*
G02*
X171642000Y-87041999I0J-249999D01*
G01*
X171642000Y-87742001D01*
G75*
G02*
X171392001Y-87992000I-249999J0D01*
G01*
G37*
G36*
G01*
X171392001Y-89992000D02*
X170491999Y-89992000D01*
G75*
G02*
X170242000Y-89742001I0J249999D01*
G01*
X170242000Y-89041999D01*
G75*
G02*
X170491999Y-88792000I249999J0D01*
G01*
X171392001Y-88792000D01*
G75*
G02*
X171642000Y-89041999I0J-249999D01*
G01*
X171642000Y-89742001D01*
G75*
G02*
X171392001Y-89992000I-249999J0D01*
G01*
G37*
%TD*%
%TO.C,C2*%
G36*
G01*
X163797000Y-87942000D02*
X162847000Y-87942000D01*
G75*
G02*
X162597000Y-87692000I0J250000D01*
G01*
X162597000Y-87017000D01*
G75*
G02*
X162847000Y-86767000I250000J0D01*
G01*
X163797000Y-86767000D01*
G75*
G02*
X164047000Y-87017000I0J-250000D01*
G01*
X164047000Y-87692000D01*
G75*
G02*
X163797000Y-87942000I-250000J0D01*
G01*
G37*
G36*
G01*
X163797000Y-90017000D02*
X162847000Y-90017000D01*
G75*
G02*
X162597000Y-89767000I0J250000D01*
G01*
X162597000Y-89092000D01*
G75*
G02*
X162847000Y-88842000I250000J0D01*
G01*
X163797000Y-88842000D01*
G75*
G02*
X164047000Y-89092000I0J-250000D01*
G01*
X164047000Y-89767000D01*
G75*
G02*
X163797000Y-90017000I-250000J0D01*
G01*
G37*
%TD*%
M02*
