%TF.GenerationSoftware,KiCad,Pcbnew,(5.1.12)-1*%
%TF.CreationDate,2022-08-02T20:23:38+02:00*%
%TF.ProjectId,esp32-led,65737033-322d-46c6-9564-2e6b69636164,rev?*%
%TF.SameCoordinates,Original*%
%TF.FileFunction,Soldermask,Top*%
%TF.FilePolarity,Negative*%
%FSLAX46Y46*%
G04 Gerber Fmt 4.6, Leading zero omitted, Abs format (unit mm)*
G04 Created by KiCad (PCBNEW (5.1.12)-1) date 2022-08-02 20:23:38*
%MOMM*%
%LPD*%
G01*
G04 APERTURE LIST*
%ADD10C,0.010000*%
%ADD11O,1.700000X1.700000*%
%ADD12R,1.700000X1.700000*%
%ADD13C,4.300000*%
%ADD14C,2.250000*%
%ADD15R,1.350000X1.350000*%
%ADD16C,1.350000*%
%ADD17C,2.000000*%
%ADD18R,2.000000X2.000000*%
G04 APERTURE END LIST*
D10*
%TO.C,J2*%
G36*
X171960000Y-98148000D02*
G01*
X171994000Y-98149000D01*
X172028000Y-98152000D01*
X172062000Y-98156000D01*
X172095000Y-98162000D01*
X172128000Y-98170000D01*
X172161000Y-98180000D01*
X172193000Y-98191000D01*
X172224000Y-98204000D01*
X172255000Y-98219000D01*
X172285000Y-98235000D01*
X172314000Y-98253000D01*
X172342000Y-98272000D01*
X172369000Y-98293000D01*
X172395000Y-98315000D01*
X172420000Y-98338000D01*
X172443000Y-98363000D01*
X172465000Y-98389000D01*
X172486000Y-98416000D01*
X172505000Y-98444000D01*
X172523000Y-98473000D01*
X172539000Y-98503000D01*
X172554000Y-98534000D01*
X172567000Y-98565000D01*
X172578000Y-98597000D01*
X172588000Y-98630000D01*
X172596000Y-98663000D01*
X172602000Y-98696000D01*
X172606000Y-98730000D01*
X172609000Y-98764000D01*
X172610000Y-98798000D01*
X172610000Y-99398000D01*
X172609000Y-99432000D01*
X172606000Y-99466000D01*
X172602000Y-99500000D01*
X172596000Y-99533000D01*
X172588000Y-99566000D01*
X172578000Y-99599000D01*
X172567000Y-99631000D01*
X172554000Y-99662000D01*
X172539000Y-99693000D01*
X172523000Y-99723000D01*
X172505000Y-99752000D01*
X172486000Y-99780000D01*
X172465000Y-99807000D01*
X172443000Y-99833000D01*
X172420000Y-99858000D01*
X172395000Y-99881000D01*
X172369000Y-99903000D01*
X172342000Y-99924000D01*
X172314000Y-99943000D01*
X172285000Y-99961000D01*
X172255000Y-99977000D01*
X172224000Y-99992000D01*
X172193000Y-100005000D01*
X172161000Y-100016000D01*
X172128000Y-100026000D01*
X172095000Y-100034000D01*
X172062000Y-100040000D01*
X172028000Y-100044000D01*
X171994000Y-100047000D01*
X171960000Y-100048000D01*
X171926000Y-100047000D01*
X171892000Y-100044000D01*
X171858000Y-100040000D01*
X171825000Y-100034000D01*
X171792000Y-100026000D01*
X171759000Y-100016000D01*
X171727000Y-100005000D01*
X171696000Y-99992000D01*
X171665000Y-99977000D01*
X171635000Y-99961000D01*
X171606000Y-99943000D01*
X171578000Y-99924000D01*
X171551000Y-99903000D01*
X171525000Y-99881000D01*
X171500000Y-99858000D01*
X171477000Y-99833000D01*
X171455000Y-99807000D01*
X171434000Y-99780000D01*
X171415000Y-99752000D01*
X171397000Y-99723000D01*
X171381000Y-99693000D01*
X171366000Y-99662000D01*
X171353000Y-99631000D01*
X171342000Y-99599000D01*
X171332000Y-99566000D01*
X171324000Y-99533000D01*
X171318000Y-99500000D01*
X171314000Y-99466000D01*
X171311000Y-99432000D01*
X171310000Y-99398000D01*
X171310000Y-98798000D01*
X171311000Y-98764000D01*
X171314000Y-98730000D01*
X171318000Y-98696000D01*
X171324000Y-98663000D01*
X171332000Y-98630000D01*
X171342000Y-98597000D01*
X171353000Y-98565000D01*
X171366000Y-98534000D01*
X171381000Y-98503000D01*
X171397000Y-98473000D01*
X171415000Y-98444000D01*
X171434000Y-98416000D01*
X171455000Y-98389000D01*
X171477000Y-98363000D01*
X171500000Y-98338000D01*
X171525000Y-98315000D01*
X171551000Y-98293000D01*
X171578000Y-98272000D01*
X171606000Y-98253000D01*
X171635000Y-98235000D01*
X171665000Y-98219000D01*
X171696000Y-98204000D01*
X171727000Y-98191000D01*
X171759000Y-98180000D01*
X171792000Y-98170000D01*
X171825000Y-98162000D01*
X171858000Y-98156000D01*
X171892000Y-98152000D01*
X171926000Y-98149000D01*
X171960000Y-98148000D01*
G37*
X171960000Y-98148000D02*
X171994000Y-98149000D01*
X172028000Y-98152000D01*
X172062000Y-98156000D01*
X172095000Y-98162000D01*
X172128000Y-98170000D01*
X172161000Y-98180000D01*
X172193000Y-98191000D01*
X172224000Y-98204000D01*
X172255000Y-98219000D01*
X172285000Y-98235000D01*
X172314000Y-98253000D01*
X172342000Y-98272000D01*
X172369000Y-98293000D01*
X172395000Y-98315000D01*
X172420000Y-98338000D01*
X172443000Y-98363000D01*
X172465000Y-98389000D01*
X172486000Y-98416000D01*
X172505000Y-98444000D01*
X172523000Y-98473000D01*
X172539000Y-98503000D01*
X172554000Y-98534000D01*
X172567000Y-98565000D01*
X172578000Y-98597000D01*
X172588000Y-98630000D01*
X172596000Y-98663000D01*
X172602000Y-98696000D01*
X172606000Y-98730000D01*
X172609000Y-98764000D01*
X172610000Y-98798000D01*
X172610000Y-99398000D01*
X172609000Y-99432000D01*
X172606000Y-99466000D01*
X172602000Y-99500000D01*
X172596000Y-99533000D01*
X172588000Y-99566000D01*
X172578000Y-99599000D01*
X172567000Y-99631000D01*
X172554000Y-99662000D01*
X172539000Y-99693000D01*
X172523000Y-99723000D01*
X172505000Y-99752000D01*
X172486000Y-99780000D01*
X172465000Y-99807000D01*
X172443000Y-99833000D01*
X172420000Y-99858000D01*
X172395000Y-99881000D01*
X172369000Y-99903000D01*
X172342000Y-99924000D01*
X172314000Y-99943000D01*
X172285000Y-99961000D01*
X172255000Y-99977000D01*
X172224000Y-99992000D01*
X172193000Y-100005000D01*
X172161000Y-100016000D01*
X172128000Y-100026000D01*
X172095000Y-100034000D01*
X172062000Y-100040000D01*
X172028000Y-100044000D01*
X171994000Y-100047000D01*
X171960000Y-100048000D01*
X171926000Y-100047000D01*
X171892000Y-100044000D01*
X171858000Y-100040000D01*
X171825000Y-100034000D01*
X171792000Y-100026000D01*
X171759000Y-100016000D01*
X171727000Y-100005000D01*
X171696000Y-99992000D01*
X171665000Y-99977000D01*
X171635000Y-99961000D01*
X171606000Y-99943000D01*
X171578000Y-99924000D01*
X171551000Y-99903000D01*
X171525000Y-99881000D01*
X171500000Y-99858000D01*
X171477000Y-99833000D01*
X171455000Y-99807000D01*
X171434000Y-99780000D01*
X171415000Y-99752000D01*
X171397000Y-99723000D01*
X171381000Y-99693000D01*
X171366000Y-99662000D01*
X171353000Y-99631000D01*
X171342000Y-99599000D01*
X171332000Y-99566000D01*
X171324000Y-99533000D01*
X171318000Y-99500000D01*
X171314000Y-99466000D01*
X171311000Y-99432000D01*
X171310000Y-99398000D01*
X171310000Y-98798000D01*
X171311000Y-98764000D01*
X171314000Y-98730000D01*
X171318000Y-98696000D01*
X171324000Y-98663000D01*
X171332000Y-98630000D01*
X171342000Y-98597000D01*
X171353000Y-98565000D01*
X171366000Y-98534000D01*
X171381000Y-98503000D01*
X171397000Y-98473000D01*
X171415000Y-98444000D01*
X171434000Y-98416000D01*
X171455000Y-98389000D01*
X171477000Y-98363000D01*
X171500000Y-98338000D01*
X171525000Y-98315000D01*
X171551000Y-98293000D01*
X171578000Y-98272000D01*
X171606000Y-98253000D01*
X171635000Y-98235000D01*
X171665000Y-98219000D01*
X171696000Y-98204000D01*
X171727000Y-98191000D01*
X171759000Y-98180000D01*
X171792000Y-98170000D01*
X171825000Y-98162000D01*
X171858000Y-98156000D01*
X171892000Y-98152000D01*
X171926000Y-98149000D01*
X171960000Y-98148000D01*
G36*
X163320000Y-98148000D02*
G01*
X163354000Y-98149000D01*
X163388000Y-98152000D01*
X163422000Y-98156000D01*
X163455000Y-98162000D01*
X163488000Y-98170000D01*
X163521000Y-98180000D01*
X163553000Y-98191000D01*
X163584000Y-98204000D01*
X163615000Y-98219000D01*
X163645000Y-98235000D01*
X163674000Y-98253000D01*
X163702000Y-98272000D01*
X163729000Y-98293000D01*
X163755000Y-98315000D01*
X163780000Y-98338000D01*
X163803000Y-98363000D01*
X163825000Y-98389000D01*
X163846000Y-98416000D01*
X163865000Y-98444000D01*
X163883000Y-98473000D01*
X163899000Y-98503000D01*
X163914000Y-98534000D01*
X163927000Y-98565000D01*
X163938000Y-98597000D01*
X163948000Y-98630000D01*
X163956000Y-98663000D01*
X163962000Y-98696000D01*
X163966000Y-98730000D01*
X163969000Y-98764000D01*
X163970000Y-98798000D01*
X163970000Y-99398000D01*
X163969000Y-99432000D01*
X163966000Y-99466000D01*
X163962000Y-99500000D01*
X163956000Y-99533000D01*
X163948000Y-99566000D01*
X163938000Y-99599000D01*
X163927000Y-99631000D01*
X163914000Y-99662000D01*
X163899000Y-99693000D01*
X163883000Y-99723000D01*
X163865000Y-99752000D01*
X163846000Y-99780000D01*
X163825000Y-99807000D01*
X163803000Y-99833000D01*
X163780000Y-99858000D01*
X163755000Y-99881000D01*
X163729000Y-99903000D01*
X163702000Y-99924000D01*
X163674000Y-99943000D01*
X163645000Y-99961000D01*
X163615000Y-99977000D01*
X163584000Y-99992000D01*
X163553000Y-100005000D01*
X163521000Y-100016000D01*
X163488000Y-100026000D01*
X163455000Y-100034000D01*
X163422000Y-100040000D01*
X163388000Y-100044000D01*
X163354000Y-100047000D01*
X163320000Y-100048000D01*
X163286000Y-100047000D01*
X163252000Y-100044000D01*
X163218000Y-100040000D01*
X163185000Y-100034000D01*
X163152000Y-100026000D01*
X163119000Y-100016000D01*
X163087000Y-100005000D01*
X163056000Y-99992000D01*
X163025000Y-99977000D01*
X162995000Y-99961000D01*
X162966000Y-99943000D01*
X162938000Y-99924000D01*
X162911000Y-99903000D01*
X162885000Y-99881000D01*
X162860000Y-99858000D01*
X162837000Y-99833000D01*
X162815000Y-99807000D01*
X162794000Y-99780000D01*
X162775000Y-99752000D01*
X162757000Y-99723000D01*
X162741000Y-99693000D01*
X162726000Y-99662000D01*
X162713000Y-99631000D01*
X162702000Y-99599000D01*
X162692000Y-99566000D01*
X162684000Y-99533000D01*
X162678000Y-99500000D01*
X162674000Y-99466000D01*
X162671000Y-99432000D01*
X162670000Y-99398000D01*
X162670000Y-98798000D01*
X162671000Y-98764000D01*
X162674000Y-98730000D01*
X162678000Y-98696000D01*
X162684000Y-98663000D01*
X162692000Y-98630000D01*
X162702000Y-98597000D01*
X162713000Y-98565000D01*
X162726000Y-98534000D01*
X162741000Y-98503000D01*
X162757000Y-98473000D01*
X162775000Y-98444000D01*
X162794000Y-98416000D01*
X162815000Y-98389000D01*
X162837000Y-98363000D01*
X162860000Y-98338000D01*
X162885000Y-98315000D01*
X162911000Y-98293000D01*
X162938000Y-98272000D01*
X162966000Y-98253000D01*
X162995000Y-98235000D01*
X163025000Y-98219000D01*
X163056000Y-98204000D01*
X163087000Y-98191000D01*
X163119000Y-98180000D01*
X163152000Y-98170000D01*
X163185000Y-98162000D01*
X163218000Y-98156000D01*
X163252000Y-98152000D01*
X163286000Y-98149000D01*
X163320000Y-98148000D01*
G37*
X163320000Y-98148000D02*
X163354000Y-98149000D01*
X163388000Y-98152000D01*
X163422000Y-98156000D01*
X163455000Y-98162000D01*
X163488000Y-98170000D01*
X163521000Y-98180000D01*
X163553000Y-98191000D01*
X163584000Y-98204000D01*
X163615000Y-98219000D01*
X163645000Y-98235000D01*
X163674000Y-98253000D01*
X163702000Y-98272000D01*
X163729000Y-98293000D01*
X163755000Y-98315000D01*
X163780000Y-98338000D01*
X163803000Y-98363000D01*
X163825000Y-98389000D01*
X163846000Y-98416000D01*
X163865000Y-98444000D01*
X163883000Y-98473000D01*
X163899000Y-98503000D01*
X163914000Y-98534000D01*
X163927000Y-98565000D01*
X163938000Y-98597000D01*
X163948000Y-98630000D01*
X163956000Y-98663000D01*
X163962000Y-98696000D01*
X163966000Y-98730000D01*
X163969000Y-98764000D01*
X163970000Y-98798000D01*
X163970000Y-99398000D01*
X163969000Y-99432000D01*
X163966000Y-99466000D01*
X163962000Y-99500000D01*
X163956000Y-99533000D01*
X163948000Y-99566000D01*
X163938000Y-99599000D01*
X163927000Y-99631000D01*
X163914000Y-99662000D01*
X163899000Y-99693000D01*
X163883000Y-99723000D01*
X163865000Y-99752000D01*
X163846000Y-99780000D01*
X163825000Y-99807000D01*
X163803000Y-99833000D01*
X163780000Y-99858000D01*
X163755000Y-99881000D01*
X163729000Y-99903000D01*
X163702000Y-99924000D01*
X163674000Y-99943000D01*
X163645000Y-99961000D01*
X163615000Y-99977000D01*
X163584000Y-99992000D01*
X163553000Y-100005000D01*
X163521000Y-100016000D01*
X163488000Y-100026000D01*
X163455000Y-100034000D01*
X163422000Y-100040000D01*
X163388000Y-100044000D01*
X163354000Y-100047000D01*
X163320000Y-100048000D01*
X163286000Y-100047000D01*
X163252000Y-100044000D01*
X163218000Y-100040000D01*
X163185000Y-100034000D01*
X163152000Y-100026000D01*
X163119000Y-100016000D01*
X163087000Y-100005000D01*
X163056000Y-99992000D01*
X163025000Y-99977000D01*
X162995000Y-99961000D01*
X162966000Y-99943000D01*
X162938000Y-99924000D01*
X162911000Y-99903000D01*
X162885000Y-99881000D01*
X162860000Y-99858000D01*
X162837000Y-99833000D01*
X162815000Y-99807000D01*
X162794000Y-99780000D01*
X162775000Y-99752000D01*
X162757000Y-99723000D01*
X162741000Y-99693000D01*
X162726000Y-99662000D01*
X162713000Y-99631000D01*
X162702000Y-99599000D01*
X162692000Y-99566000D01*
X162684000Y-99533000D01*
X162678000Y-99500000D01*
X162674000Y-99466000D01*
X162671000Y-99432000D01*
X162670000Y-99398000D01*
X162670000Y-98798000D01*
X162671000Y-98764000D01*
X162674000Y-98730000D01*
X162678000Y-98696000D01*
X162684000Y-98663000D01*
X162692000Y-98630000D01*
X162702000Y-98597000D01*
X162713000Y-98565000D01*
X162726000Y-98534000D01*
X162741000Y-98503000D01*
X162757000Y-98473000D01*
X162775000Y-98444000D01*
X162794000Y-98416000D01*
X162815000Y-98389000D01*
X162837000Y-98363000D01*
X162860000Y-98338000D01*
X162885000Y-98315000D01*
X162911000Y-98293000D01*
X162938000Y-98272000D01*
X162966000Y-98253000D01*
X162995000Y-98235000D01*
X163025000Y-98219000D01*
X163056000Y-98204000D01*
X163087000Y-98191000D01*
X163119000Y-98180000D01*
X163152000Y-98170000D01*
X163185000Y-98162000D01*
X163218000Y-98156000D01*
X163252000Y-98152000D01*
X163286000Y-98149000D01*
X163320000Y-98148000D01*
G36*
X171960000Y-94348000D02*
G01*
X171994000Y-94349000D01*
X172028000Y-94352000D01*
X172062000Y-94356000D01*
X172095000Y-94362000D01*
X172128000Y-94370000D01*
X172161000Y-94380000D01*
X172193000Y-94391000D01*
X172224000Y-94404000D01*
X172255000Y-94419000D01*
X172285000Y-94435000D01*
X172314000Y-94453000D01*
X172342000Y-94472000D01*
X172369000Y-94493000D01*
X172395000Y-94515000D01*
X172420000Y-94538000D01*
X172443000Y-94563000D01*
X172465000Y-94589000D01*
X172486000Y-94616000D01*
X172505000Y-94644000D01*
X172523000Y-94673000D01*
X172539000Y-94703000D01*
X172554000Y-94734000D01*
X172567000Y-94765000D01*
X172578000Y-94797000D01*
X172588000Y-94830000D01*
X172596000Y-94863000D01*
X172602000Y-94896000D01*
X172606000Y-94930000D01*
X172609000Y-94964000D01*
X172610000Y-94998000D01*
X172610000Y-95598000D01*
X172609000Y-95632000D01*
X172606000Y-95666000D01*
X172602000Y-95700000D01*
X172596000Y-95733000D01*
X172588000Y-95766000D01*
X172578000Y-95799000D01*
X172567000Y-95831000D01*
X172554000Y-95862000D01*
X172539000Y-95893000D01*
X172523000Y-95923000D01*
X172505000Y-95952000D01*
X172486000Y-95980000D01*
X172465000Y-96007000D01*
X172443000Y-96033000D01*
X172420000Y-96058000D01*
X172395000Y-96081000D01*
X172369000Y-96103000D01*
X172342000Y-96124000D01*
X172314000Y-96143000D01*
X172285000Y-96161000D01*
X172255000Y-96177000D01*
X172224000Y-96192000D01*
X172193000Y-96205000D01*
X172161000Y-96216000D01*
X172128000Y-96226000D01*
X172095000Y-96234000D01*
X172062000Y-96240000D01*
X172028000Y-96244000D01*
X171994000Y-96247000D01*
X171960000Y-96248000D01*
X171926000Y-96247000D01*
X171892000Y-96244000D01*
X171858000Y-96240000D01*
X171825000Y-96234000D01*
X171792000Y-96226000D01*
X171759000Y-96216000D01*
X171727000Y-96205000D01*
X171696000Y-96192000D01*
X171665000Y-96177000D01*
X171635000Y-96161000D01*
X171606000Y-96143000D01*
X171578000Y-96124000D01*
X171551000Y-96103000D01*
X171525000Y-96081000D01*
X171500000Y-96058000D01*
X171477000Y-96033000D01*
X171455000Y-96007000D01*
X171434000Y-95980000D01*
X171415000Y-95952000D01*
X171397000Y-95923000D01*
X171381000Y-95893000D01*
X171366000Y-95862000D01*
X171353000Y-95831000D01*
X171342000Y-95799000D01*
X171332000Y-95766000D01*
X171324000Y-95733000D01*
X171318000Y-95700000D01*
X171314000Y-95666000D01*
X171311000Y-95632000D01*
X171310000Y-95598000D01*
X171310000Y-94998000D01*
X171311000Y-94964000D01*
X171314000Y-94930000D01*
X171318000Y-94896000D01*
X171324000Y-94863000D01*
X171332000Y-94830000D01*
X171342000Y-94797000D01*
X171353000Y-94765000D01*
X171366000Y-94734000D01*
X171381000Y-94703000D01*
X171397000Y-94673000D01*
X171415000Y-94644000D01*
X171434000Y-94616000D01*
X171455000Y-94589000D01*
X171477000Y-94563000D01*
X171500000Y-94538000D01*
X171525000Y-94515000D01*
X171551000Y-94493000D01*
X171578000Y-94472000D01*
X171606000Y-94453000D01*
X171635000Y-94435000D01*
X171665000Y-94419000D01*
X171696000Y-94404000D01*
X171727000Y-94391000D01*
X171759000Y-94380000D01*
X171792000Y-94370000D01*
X171825000Y-94362000D01*
X171858000Y-94356000D01*
X171892000Y-94352000D01*
X171926000Y-94349000D01*
X171960000Y-94348000D01*
G37*
X171960000Y-94348000D02*
X171994000Y-94349000D01*
X172028000Y-94352000D01*
X172062000Y-94356000D01*
X172095000Y-94362000D01*
X172128000Y-94370000D01*
X172161000Y-94380000D01*
X172193000Y-94391000D01*
X172224000Y-94404000D01*
X172255000Y-94419000D01*
X172285000Y-94435000D01*
X172314000Y-94453000D01*
X172342000Y-94472000D01*
X172369000Y-94493000D01*
X172395000Y-94515000D01*
X172420000Y-94538000D01*
X172443000Y-94563000D01*
X172465000Y-94589000D01*
X172486000Y-94616000D01*
X172505000Y-94644000D01*
X172523000Y-94673000D01*
X172539000Y-94703000D01*
X172554000Y-94734000D01*
X172567000Y-94765000D01*
X172578000Y-94797000D01*
X172588000Y-94830000D01*
X172596000Y-94863000D01*
X172602000Y-94896000D01*
X172606000Y-94930000D01*
X172609000Y-94964000D01*
X172610000Y-94998000D01*
X172610000Y-95598000D01*
X172609000Y-95632000D01*
X172606000Y-95666000D01*
X172602000Y-95700000D01*
X172596000Y-95733000D01*
X172588000Y-95766000D01*
X172578000Y-95799000D01*
X172567000Y-95831000D01*
X172554000Y-95862000D01*
X172539000Y-95893000D01*
X172523000Y-95923000D01*
X172505000Y-95952000D01*
X172486000Y-95980000D01*
X172465000Y-96007000D01*
X172443000Y-96033000D01*
X172420000Y-96058000D01*
X172395000Y-96081000D01*
X172369000Y-96103000D01*
X172342000Y-96124000D01*
X172314000Y-96143000D01*
X172285000Y-96161000D01*
X172255000Y-96177000D01*
X172224000Y-96192000D01*
X172193000Y-96205000D01*
X172161000Y-96216000D01*
X172128000Y-96226000D01*
X172095000Y-96234000D01*
X172062000Y-96240000D01*
X172028000Y-96244000D01*
X171994000Y-96247000D01*
X171960000Y-96248000D01*
X171926000Y-96247000D01*
X171892000Y-96244000D01*
X171858000Y-96240000D01*
X171825000Y-96234000D01*
X171792000Y-96226000D01*
X171759000Y-96216000D01*
X171727000Y-96205000D01*
X171696000Y-96192000D01*
X171665000Y-96177000D01*
X171635000Y-96161000D01*
X171606000Y-96143000D01*
X171578000Y-96124000D01*
X171551000Y-96103000D01*
X171525000Y-96081000D01*
X171500000Y-96058000D01*
X171477000Y-96033000D01*
X171455000Y-96007000D01*
X171434000Y-95980000D01*
X171415000Y-95952000D01*
X171397000Y-95923000D01*
X171381000Y-95893000D01*
X171366000Y-95862000D01*
X171353000Y-95831000D01*
X171342000Y-95799000D01*
X171332000Y-95766000D01*
X171324000Y-95733000D01*
X171318000Y-95700000D01*
X171314000Y-95666000D01*
X171311000Y-95632000D01*
X171310000Y-95598000D01*
X171310000Y-94998000D01*
X171311000Y-94964000D01*
X171314000Y-94930000D01*
X171318000Y-94896000D01*
X171324000Y-94863000D01*
X171332000Y-94830000D01*
X171342000Y-94797000D01*
X171353000Y-94765000D01*
X171366000Y-94734000D01*
X171381000Y-94703000D01*
X171397000Y-94673000D01*
X171415000Y-94644000D01*
X171434000Y-94616000D01*
X171455000Y-94589000D01*
X171477000Y-94563000D01*
X171500000Y-94538000D01*
X171525000Y-94515000D01*
X171551000Y-94493000D01*
X171578000Y-94472000D01*
X171606000Y-94453000D01*
X171635000Y-94435000D01*
X171665000Y-94419000D01*
X171696000Y-94404000D01*
X171727000Y-94391000D01*
X171759000Y-94380000D01*
X171792000Y-94370000D01*
X171825000Y-94362000D01*
X171858000Y-94356000D01*
X171892000Y-94352000D01*
X171926000Y-94349000D01*
X171960000Y-94348000D01*
G36*
X163320000Y-94348000D02*
G01*
X163354000Y-94349000D01*
X163388000Y-94352000D01*
X163422000Y-94356000D01*
X163455000Y-94362000D01*
X163488000Y-94370000D01*
X163521000Y-94380000D01*
X163553000Y-94391000D01*
X163584000Y-94404000D01*
X163615000Y-94419000D01*
X163645000Y-94435000D01*
X163674000Y-94453000D01*
X163702000Y-94472000D01*
X163729000Y-94493000D01*
X163755000Y-94515000D01*
X163780000Y-94538000D01*
X163803000Y-94563000D01*
X163825000Y-94589000D01*
X163846000Y-94616000D01*
X163865000Y-94644000D01*
X163883000Y-94673000D01*
X163899000Y-94703000D01*
X163914000Y-94734000D01*
X163927000Y-94765000D01*
X163938000Y-94797000D01*
X163948000Y-94830000D01*
X163956000Y-94863000D01*
X163962000Y-94896000D01*
X163966000Y-94930000D01*
X163969000Y-94964000D01*
X163970000Y-94998000D01*
X163970000Y-95598000D01*
X163969000Y-95632000D01*
X163966000Y-95666000D01*
X163962000Y-95700000D01*
X163956000Y-95733000D01*
X163948000Y-95766000D01*
X163938000Y-95799000D01*
X163927000Y-95831000D01*
X163914000Y-95862000D01*
X163899000Y-95893000D01*
X163883000Y-95923000D01*
X163865000Y-95952000D01*
X163846000Y-95980000D01*
X163825000Y-96007000D01*
X163803000Y-96033000D01*
X163780000Y-96058000D01*
X163755000Y-96081000D01*
X163729000Y-96103000D01*
X163702000Y-96124000D01*
X163674000Y-96143000D01*
X163645000Y-96161000D01*
X163615000Y-96177000D01*
X163584000Y-96192000D01*
X163553000Y-96205000D01*
X163521000Y-96216000D01*
X163488000Y-96226000D01*
X163455000Y-96234000D01*
X163422000Y-96240000D01*
X163388000Y-96244000D01*
X163354000Y-96247000D01*
X163320000Y-96248000D01*
X163286000Y-96247000D01*
X163252000Y-96244000D01*
X163218000Y-96240000D01*
X163185000Y-96234000D01*
X163152000Y-96226000D01*
X163119000Y-96216000D01*
X163087000Y-96205000D01*
X163056000Y-96192000D01*
X163025000Y-96177000D01*
X162995000Y-96161000D01*
X162966000Y-96143000D01*
X162938000Y-96124000D01*
X162911000Y-96103000D01*
X162885000Y-96081000D01*
X162860000Y-96058000D01*
X162837000Y-96033000D01*
X162815000Y-96007000D01*
X162794000Y-95980000D01*
X162775000Y-95952000D01*
X162757000Y-95923000D01*
X162741000Y-95893000D01*
X162726000Y-95862000D01*
X162713000Y-95831000D01*
X162702000Y-95799000D01*
X162692000Y-95766000D01*
X162684000Y-95733000D01*
X162678000Y-95700000D01*
X162674000Y-95666000D01*
X162671000Y-95632000D01*
X162670000Y-95598000D01*
X162670000Y-94998000D01*
X162671000Y-94964000D01*
X162674000Y-94930000D01*
X162678000Y-94896000D01*
X162684000Y-94863000D01*
X162692000Y-94830000D01*
X162702000Y-94797000D01*
X162713000Y-94765000D01*
X162726000Y-94734000D01*
X162741000Y-94703000D01*
X162757000Y-94673000D01*
X162775000Y-94644000D01*
X162794000Y-94616000D01*
X162815000Y-94589000D01*
X162837000Y-94563000D01*
X162860000Y-94538000D01*
X162885000Y-94515000D01*
X162911000Y-94493000D01*
X162938000Y-94472000D01*
X162966000Y-94453000D01*
X162995000Y-94435000D01*
X163025000Y-94419000D01*
X163056000Y-94404000D01*
X163087000Y-94391000D01*
X163119000Y-94380000D01*
X163152000Y-94370000D01*
X163185000Y-94362000D01*
X163218000Y-94356000D01*
X163252000Y-94352000D01*
X163286000Y-94349000D01*
X163320000Y-94348000D01*
G37*
X163320000Y-94348000D02*
X163354000Y-94349000D01*
X163388000Y-94352000D01*
X163422000Y-94356000D01*
X163455000Y-94362000D01*
X163488000Y-94370000D01*
X163521000Y-94380000D01*
X163553000Y-94391000D01*
X163584000Y-94404000D01*
X163615000Y-94419000D01*
X163645000Y-94435000D01*
X163674000Y-94453000D01*
X163702000Y-94472000D01*
X163729000Y-94493000D01*
X163755000Y-94515000D01*
X163780000Y-94538000D01*
X163803000Y-94563000D01*
X163825000Y-94589000D01*
X163846000Y-94616000D01*
X163865000Y-94644000D01*
X163883000Y-94673000D01*
X163899000Y-94703000D01*
X163914000Y-94734000D01*
X163927000Y-94765000D01*
X163938000Y-94797000D01*
X163948000Y-94830000D01*
X163956000Y-94863000D01*
X163962000Y-94896000D01*
X163966000Y-94930000D01*
X163969000Y-94964000D01*
X163970000Y-94998000D01*
X163970000Y-95598000D01*
X163969000Y-95632000D01*
X163966000Y-95666000D01*
X163962000Y-95700000D01*
X163956000Y-95733000D01*
X163948000Y-95766000D01*
X163938000Y-95799000D01*
X163927000Y-95831000D01*
X163914000Y-95862000D01*
X163899000Y-95893000D01*
X163883000Y-95923000D01*
X163865000Y-95952000D01*
X163846000Y-95980000D01*
X163825000Y-96007000D01*
X163803000Y-96033000D01*
X163780000Y-96058000D01*
X163755000Y-96081000D01*
X163729000Y-96103000D01*
X163702000Y-96124000D01*
X163674000Y-96143000D01*
X163645000Y-96161000D01*
X163615000Y-96177000D01*
X163584000Y-96192000D01*
X163553000Y-96205000D01*
X163521000Y-96216000D01*
X163488000Y-96226000D01*
X163455000Y-96234000D01*
X163422000Y-96240000D01*
X163388000Y-96244000D01*
X163354000Y-96247000D01*
X163320000Y-96248000D01*
X163286000Y-96247000D01*
X163252000Y-96244000D01*
X163218000Y-96240000D01*
X163185000Y-96234000D01*
X163152000Y-96226000D01*
X163119000Y-96216000D01*
X163087000Y-96205000D01*
X163056000Y-96192000D01*
X163025000Y-96177000D01*
X162995000Y-96161000D01*
X162966000Y-96143000D01*
X162938000Y-96124000D01*
X162911000Y-96103000D01*
X162885000Y-96081000D01*
X162860000Y-96058000D01*
X162837000Y-96033000D01*
X162815000Y-96007000D01*
X162794000Y-95980000D01*
X162775000Y-95952000D01*
X162757000Y-95923000D01*
X162741000Y-95893000D01*
X162726000Y-95862000D01*
X162713000Y-95831000D01*
X162702000Y-95799000D01*
X162692000Y-95766000D01*
X162684000Y-95733000D01*
X162678000Y-95700000D01*
X162674000Y-95666000D01*
X162671000Y-95632000D01*
X162670000Y-95598000D01*
X162670000Y-94998000D01*
X162671000Y-94964000D01*
X162674000Y-94930000D01*
X162678000Y-94896000D01*
X162684000Y-94863000D01*
X162692000Y-94830000D01*
X162702000Y-94797000D01*
X162713000Y-94765000D01*
X162726000Y-94734000D01*
X162741000Y-94703000D01*
X162757000Y-94673000D01*
X162775000Y-94644000D01*
X162794000Y-94616000D01*
X162815000Y-94589000D01*
X162837000Y-94563000D01*
X162860000Y-94538000D01*
X162885000Y-94515000D01*
X162911000Y-94493000D01*
X162938000Y-94472000D01*
X162966000Y-94453000D01*
X162995000Y-94435000D01*
X163025000Y-94419000D01*
X163056000Y-94404000D01*
X163087000Y-94391000D01*
X163119000Y-94380000D01*
X163152000Y-94370000D01*
X163185000Y-94362000D01*
X163218000Y-94356000D01*
X163252000Y-94352000D01*
X163286000Y-94349000D01*
X163320000Y-94348000D01*
%TD*%
D11*
%TO.C,J3*%
X174752000Y-48514000D03*
X172212000Y-48514000D03*
D12*
X169672000Y-48514000D03*
%TD*%
D13*
%TO.C,REF\u002A\u002A*%
X146558000Y-95186500D03*
%TD*%
%TO.C,REF\u002A\u002A*%
X146685000Y-51752500D03*
%TD*%
%TO.C,REF\u002A\u002A*%
X187388500Y-95059500D03*
%TD*%
%TO.C,REF\u002A\u002A*%
X187388500Y-51752500D03*
%TD*%
D14*
%TO.C,U2*%
X179605354Y-47300000D03*
X154605354Y-47300000D03*
X179605354Y-99300000D03*
X154605354Y-99300000D03*
D15*
X180105354Y-50440000D03*
D16*
X180105354Y-52980000D03*
X180105354Y-55520000D03*
X180105354Y-58060000D03*
X180105354Y-60600000D03*
X180105354Y-63140000D03*
X180105354Y-65680000D03*
X180105354Y-68220000D03*
X180105354Y-70760000D03*
X180105354Y-73300000D03*
X180105354Y-75840000D03*
X180105354Y-78380000D03*
X180105354Y-80920000D03*
X180105354Y-83460000D03*
X180105354Y-86000000D03*
X180105354Y-88540000D03*
X180105354Y-91080000D03*
X180105354Y-93620000D03*
X180105354Y-96160000D03*
X154105354Y-93620000D03*
X154105354Y-91080000D03*
X154105354Y-88540000D03*
X154105354Y-86000000D03*
X154105354Y-83460000D03*
X154105354Y-80920000D03*
X154105354Y-78380000D03*
X154105354Y-75840000D03*
X154105354Y-73300000D03*
X154105354Y-70760000D03*
X154105354Y-68220000D03*
X154105354Y-65680000D03*
X154105354Y-63140000D03*
X154105354Y-60600000D03*
X154105354Y-58060000D03*
X154105354Y-55520000D03*
D15*
X154105354Y-96160000D03*
D16*
X154105354Y-52980000D03*
X154105354Y-50440000D03*
%TD*%
D11*
%TO.C,J1*%
X159512000Y-48514000D03*
X162052000Y-48514000D03*
D12*
X164592000Y-48514000D03*
%TD*%
D17*
%TO.C,C1*%
X170100000Y-63754000D03*
D18*
X165100000Y-63754000D03*
%TD*%
M02*
